<?xml version="1.0" encoding="UTF-8" standalone="no"?>
<svg
   xmlns:dc="http://purl.org/dc/elements/1.1/"
   xmlns:cc="http://creativecommons.org/ns#"
   xmlns:rdf="http://www.w3.org/1999/02/22-rdf-syntax-ns#"
   xmlns:svg="http://www.w3.org/2000/svg"
   xmlns="http://www.w3.org/2000/svg"
   id="svg3925"
   preserveAspectRatio="xMidYMid meet"
   viewBox="0 0 927 596"
   height="596pt"
   width="927pt"
   version="1.0">
  <defs
     id="defs3929" />
  <metadata
     id="metadata3885">
Created by potrace 1.11, written by Peter Selinger 2001-2013
<rdf:RDF>
  <cc:Work
     rdf:about="">
    <dc:format>image/svg+xml</dc:format>
    <dc:type
       rdf:resource="http://purl.org/dc/dcmitype/StillImage" />
    <dc:title></dc:title>
  </cc:Work>
</rdf:RDF>
</metadata>
  <rect
     y="-2.5996942e-014"
     x="0"
     height="596"
     width="927"
     id="rect4474"
     style="opacity:1;fill:#ffffff;fill-opacity:1;stroke:none;stroke-width:48.84375763;stroke-miterlimit:4;stroke-dasharray:none;stroke-opacity:1" />
  <g
     style="fill:#000000;stroke:none"
     id="g3923"
     transform="matrix(0.1,0,0,-0.1,0,596)">
    <path
       id="path3887"
       d="M 0,2980 V 0 H 4635 9270 V 2980 5960 H 4635 0 Z m 4690,2452 5,-132 63,51 62,51 v 84 84 h 45 c 38,0 45,-3 50,-22 3,-13 4,-142 3,-287 l -3,-265 -26,-7 c -15,-3 -39,-4 -54,-1 l -28,5 5,168 c 3,93 3,169 0,169 -2,0 -31,-23 -63,-51 l -59,-51 v -118 -118 l -35,-6 c -20,-4 -45,-4 -55,-1 -19,6 -20,17 -20,289 0,155 3,286 7,290 4,4 28,6 53,4 l 45,-3 z m -536,85 c 9,-7 21,-30 26,-52 16,-75 62,-474 57,-490 -5,-11 -21,-15 -56,-15 -55,0 -61,8 -61,93 0,58 -14,66 -74,43 -58,-22 -88,-57 -95,-109 l -6,-42 -49,-3 -49,-3 6,88 c 7,119 36,193 102,259 31,32 68,57 95,66 40,14 45,18 43,43 -4,55 -8,58 -74,53 -66,-5 -89,-21 -89,-65 0,-18 -6,-23 -26,-23 -64,0 -82,45 -44,108 11,17 21,32 22,33 7,2 206,27 229,28 14,0 33,-5 43,-12 z m 1340,-13 c 41,-16 126,-202 128,-277 1,-78 -110,-247 -182,-277 -27,-11 -33,-10 -51,6 -49,44 -109,206 -109,294 0,47 48,129 119,201 57,59 66,64 95,53 z m 495,-64 c 68,-10 128,-23 135,-30 11,-11 16,-143 5,-154 -3,-3 -27,1 -52,10 l -47,16 v 48 c 0,40 -4,50 -21,55 -11,4 -22,5 -24,3 -2,-2 -9,-44 -15,-93 -28,-220 -51,-391 -56,-408 -5,-15 -13,-17 -57,-11 -29,4 -55,9 -59,13 -4,4 12,119 36,256 46,260 46,268 1,263 -14,-2 -21,-13 -26,-41 -3,-20 -8,-39 -10,-41 -10,-8 -88,-15 -93,-8 -6,11 23,123 36,139 12,14 51,12 247,-17 z m -2467,-75 c 4,-22 11,-62 15,-89 8,-49 9,-50 86,-96 100,-59 141,-99 157,-153 28,-101 3,-125 -169,-161 l -110,-24 -5,27 c -3,14 -11,81 -17,148 -14,143 -17,152 -54,135 -47,-22 -65,-81 -65,-219 v -122 l -37,-10 c -21,-6 -49,-11 -62,-11 h -24 l 6,93 c 11,168 60,265 158,309 l 51,23 -5,52 c -7,72 -11,76 -66,68 -74,-11 -101,-30 -101,-72 0,-19 -6,-23 -29,-23 -42,0 -64,25 -55,64 10,47 22,65 48,72 55,13 194,32 231,31 38,-2 40,-4 47,-42 z m 2918,-41 c 94,-22 113,-30 122,-49 8,-19 1,-76 -37,-269 -26,-135 -52,-252 -59,-260 -9,-12 -19,-13 -50,-6 -56,12 -60,19 -46,86 7,32 14,64 17,71 7,19 -75,26 -122,11 -30,-10 -45,-23 -63,-55 -19,-34 -29,-43 -51,-43 -15,0 -35,6 -45,13 -18,13 -18,16 -2,64 51,153 163,256 296,270 58,6 60,7 66,39 8,44 3,50 -55,64 -62,15 -85,8 -101,-30 -7,-17 -15,-30 -18,-30 -2,0 -20,10 -39,21 -22,14 -32,27 -29,36 3,8 6,18 6,23 0,21 53,70 76,70 13,0 74,-12 134,-26 z m -3420,-44 c 11,-6 24,-19 30,-30 19,-36 140,-494 133,-501 -5,-4 -27,-12 -50,-17 -52,-12 -58,-6 -76,74 -13,53 -17,59 -38,56 -65,-7 -124,-71 -122,-131 2,-46 -10,-59 -57,-63 -31,-3 -35,0 -41,27 -21,96 -2,229 45,308 27,45 96,105 136,119 6,2 6,15 -1,41 -11,41 -30,46 -101,27 -43,-12 -63,-40 -54,-76 6,-23 4,-24 -38,-24 -47,0 -56,9 -56,56 0,45 27,82 68,93 220,58 198,54 222,41 z m 3755,-82 c 14,-6 25,-15 25,-20 0,-5 -36,-105 -80,-222 -44,-117 -80,-220 -80,-229 0,-21 47,-57 76,-57 31,0 44,22 94,160 78,218 113,302 126,307 24,9 69,-21 67,-44 -2,-12 -42,-128 -89,-258 -83,-225 -88,-235 -113,-235 -14,0 -41,4 -59,9 -30,9 -34,7 -44,-14 -14,-31 -29,-36 -59,-21 -19,10 -24,19 -22,49 2,31 -2,39 -32,57 -19,12 -39,29 -44,38 -10,17 36,156 124,375 50,124 56,130 110,105 z m -4162,-56 c 22,-24 38,-104 38,-185 0,-77 -27,-137 -80,-179 l -30,-23 34,-79 c 19,-44 35,-85 35,-93 0,-13 -26,-27 -74,-39 -20,-5 -27,4 -68,93 -92,198 -169,385 -165,397 9,24 232,125 278,126 9,0 23,-8 32,-18 z m 4640,-117 c 49,-19 97,-41 108,-51 21,-19 25,-65 8,-113 -12,-34 -12,-34 -57,-25 -28,6 -30,8 -25,45 6,38 5,39 -39,59 -77,34 -89,31 -109,-20 l -17,-45 43,-37 c 93,-82 120,-210 74,-347 l -22,-63 -36,5 c -64,8 -279,100 -288,123 -6,16 40,142 125,342 66,158 82,178 127,165 11,-3 60,-20 108,-38 z m -5023,-71 c 18,-46 -18,-84 -45,-47 -23,32 -43,-5 -60,-114 l -7,-43 h 44 c 64,0 140,-25 170,-57 29,-30 88,-148 88,-174 0,-19 -53,-44 -75,-35 -8,3 -15,12 -15,19 0,31 -64,139 -102,171 -43,37 -94,54 -110,38 -10,-10 -8,-17 76,-195 l 46,-98 -47,-29 c -37,-24 -50,-28 -59,-18 -10,12 -169,348 -207,440 -14,33 -14,38 1,51 21,18 57,37 70,37 6,0 27,-30 48,-67 l 38,-68 12,71 c 17,105 43,144 95,144 22,0 32,-6 39,-26 z m 5350,-64 39,-20 -16,-37 c -8,-21 -33,-73 -54,-115 -47,-93 -48,-100 -11,-88 15,5 46,14 69,20 38,10 45,17 83,85 23,41 46,75 52,75 6,0 26,-9 44,-21 41,-25 48,-3 -102,-300 -92,-182 -120,-229 -135,-229 -30,0 -79,28 -79,46 0,14 121,244 143,272 16,21 5,21 -66,4 l -69,-16 -56,-103 c -62,-112 -72,-118 -130,-83 l -32,20 71,142 c 114,229 190,368 200,368 5,0 27,-9 49,-20 z m 383,-205 c 20,-14 37,-29 37,-33 0,-4 -15,-32 -33,-62 -18,-30 -45,-76 -60,-102 l -28,-47 41,-26 c 22,-14 44,-25 49,-25 5,0 35,43 66,95 31,52 61,97 66,100 8,6 89,-31 89,-41 0,-15 -275,-480 -290,-489 -11,-7 -90,31 -90,43 0,4 29,57 65,117 35,61 65,113 65,117 0,11 -80,59 -89,54 -4,-3 -36,-53 -71,-111 -37,-61 -70,-105 -79,-105 -19,0 -81,37 -81,48 0,4 55,100 123,212 139,231 170,280 177,280 3,0 22,-11 43,-25 z m -6396,-42 c 23,-27 187,-304 239,-405 l 24,-47 -46,-27 c -54,-32 -54,-32 -100,59 -13,26 -29,47 -35,47 -7,0 -32,-20 -57,-45 l -45,-45 6,-65 c 6,-64 6,-65 -23,-80 -16,-8 -34,-15 -40,-15 -6,0 -23,26 -38,58 -20,45 -27,77 -30,150 -5,114 11,165 76,234 l 44,47 -21,35 c -24,39 -29,39 -99,-2 -42,-24 -43,-26 -40,-71 l 3,-46 -41,-3 c -35,-3 -42,0 -52,23 -29,63 -9,98 85,151 153,86 154,86 190,47 z m 3266,-88 c 190,-40 353,-196 411,-395 10,-33 17,-91 17,-145 0,-131 -30,-229 -106,-355 -31,-51 -35,-65 -35,-128 0,-46 -5,-73 -14,-81 -7,-6 -52,-24 -100,-40 -105,-35 -148,-67 -181,-132 l -25,-49 h -165 -164 l -17,33 c -32,64 -83,104 -185,147 -108,46 -119,59 -119,147 0,32 -11,64 -44,126 -133,246 -110,530 56,712 83,91 179,146 288,165 78,13 310,11 383,-5 z m 3471,-71 c 9,-8 16,-21 16,-28 0,-6 -20,-86 -44,-176 -25,-91 -43,-166 -42,-168 2,-2 28,23 57,55 99,108 178,183 192,183 19,0 43,-29 51,-62 8,-36 -22,-68 -65,-68 -27,0 -54,-23 -208,-180 -177,-181 -202,-199 -231,-166 -9,12 -1,25 49,72 34,31 61,60 61,64 0,4 -11,13 -24,20 -14,7 -27,19 -30,27 -5,13 55,216 110,371 25,70 27,72 59,72 19,0 41,-7 49,-16 z M 1139,4338 c -1,-62 2,-113 7,-113 5,0 26,4 46,8 67,14 114,-7 153,-66 50,-76 63,-133 42,-188 -41,-105 -83,-141 -168,-141 -51,1 -74,10 -126,49 -39,29 -43,59 -8,75 21,9 35,6 99,-27 52,-26 80,-35 95,-30 34,11 61,63 61,119 0,41 -5,53 -34,82 -24,24 -44,34 -68,35 -59,2 -92,-3 -131,-18 -21,-9 -41,-12 -45,-8 -4,4 -7,54 -6,111 l 1,104 -27,-18 c -74,-49 -74,-48 -60,-83 13,-29 12,-33 -9,-50 -13,-11 -27,-19 -32,-19 -11,0 -69,79 -69,95 0,9 264,194 278,195 2,0 2,-51 1,-112 z M 4395,3268 c 10,-46 50,-112 79,-132 39,-25 280,-23 319,2 37,25 75,79 88,124 9,35 13,38 44,38 h 35 v -83 -83 l -109,-102 c -100,-93 -115,-103 -164,-113 -39,-8 -68,-8 -108,0 -47,10 -67,23 -161,107 l -108,96 v 89 89 h 39 c 36,0 40,-3 46,-32 z m -438,-286 c 17,-9 78,-59 135,-110 89,-81 120,-102 233,-157 72,-35 174,-78 229,-95 l 98,-32 147,67 c 331,153 407,199 452,271 27,44 66,64 123,64 69,0 77,-13 69,-123 l -6,-92 37,-48 c 42,-55 48,-105 16,-137 -28,-28 -62,-25 -160,15 -46,19 -97,35 -112,35 -27,0 -172,-61 -312,-132 l -70,-35 107,-79 c 207,-154 309,-204 418,-204 79,0 109,-10 130,-44 40,-66 17,-114 -75,-156 -33,-15 -83,-46 -111,-69 -84,-69 -134,-54 -165,49 -24,79 -57,121 -155,195 -82,61 -313,205 -331,205 -18,0 -396,-255 -426,-286 -14,-16 -38,-64 -53,-107 -33,-94 -57,-117 -112,-108 -30,5 -41,13 -54,39 -22,48 -68,73 -141,79 -35,3 -70,12 -79,20 -37,32 -28,130 14,157 12,8 67,21 122,29 76,12 118,25 176,54 80,41 349,214 349,224 0,7 -198,99 -312,146 -77,31 -103,29 -189,-12 -92,-44 -135,-46 -172,-7 -37,38 -34,61 13,120 44,54 47,76 29,162 -6,28 -8,62 -5,76 11,44 86,58 143,26 z m 4265,-639 c 26,-26 48,-53 48,-60 0,-14 -51,-43 -77,-43 -9,0 -31,14 -48,30 -28,27 -33,29 -50,16 -18,-13 -9,-26 133,-215 84,-111 152,-207 152,-214 -1,-15 -68,-67 -86,-67 -7,0 -77,94 -155,209 -126,186 -144,209 -161,200 -29,-16 -32,-35 -8,-67 l 22,-30 -27,-36 c -15,-20 -30,-36 -34,-36 -7,0 -66,93 -76,121 -4,10 14,31 57,66 100,81 232,173 248,173 8,0 36,-21 62,-47 z m -6864,21 c 32,-22 51,-66 58,-133 7,-58 6,-60 -18,-66 -14,-4 -39,-5 -54,-3 -32,3 -31,2 -19,95 6,43 5,54 -8,59 -22,8 -72,-21 -130,-75 -58,-53 -77,-92 -77,-155 0,-57 9,-80 55,-140 34,-45 35,-49 20,-66 -24,-27 -100,-64 -117,-58 -27,11 -63,144 -62,233 0,134 59,223 194,293 69,35 123,41 158,16 z m 398,-284 c 104,-70 159,-115 162,-133 3,-17 -61,-117 -229,-357 -38,-55 -74,-96 -85,-98 -10,-1 -34,10 -53,25 l -33,29 101,136 c 55,74 101,138 101,141 0,16 -82,27 -119,17 -45,-12 -124,-79 -176,-150 -20,-28 -40,-50 -45,-50 -17,0 -70,52 -70,69 0,28 103,119 167,149 73,33 168,41 233,18 44,-15 45,-15 63,7 10,12 24,34 32,49 15,27 15,28 -37,63 -29,19 -59,35 -67,35 -8,0 -28,-12 -43,-27 l -28,-27 -28,27 c -26,26 -26,29 -12,55 14,25 71,62 96,62 6,0 37,-18 70,-40 z m 5969,-52 c 25,-37 55,-146 55,-203 0,-64 -11,-96 -50,-145 l -29,-36 44,-70 c 25,-38 45,-74 45,-81 0,-11 -66,-63 -81,-63 -4,0 -59,80 -122,178 -164,255 -169,263 -163,277 13,35 220,164 263,165 12,0 29,-10 38,-22 z m -393,-380 c 115,-218 158,-305 158,-321 0,-15 -51,-47 -77,-47 -14,0 -41,43 -108,175 -50,96 -93,175 -96,175 -4,0 -12,-13 -19,-30 -16,-38 -7,-84 33,-173 l 31,-70 -24,-19 c -13,-10 -30,-17 -39,-16 -9,2 -33,35 -53,73 -46,85 -87,125 -128,125 h -30 l 91,-181 c 70,-142 88,-184 77,-191 -31,-21 -68,-38 -83,-38 -10,0 -55,81 -135,242 -66,133 -120,247 -120,253 0,13 76,58 90,53 5,-2 20,-23 32,-47 21,-39 27,-44 62,-47 50,-4 101,-21 116,-40 21,-24 30,-16 30,29 0,26 10,63 24,92 l 25,48 -20,40 c -11,21 -19,40 -17,42 13,11 66,34 79,35 10,0 45,-57 101,-162 z m -5074,140 c 19,-23 34,-135 31,-221 -4,-78 -7,-89 -35,-124 -42,-51 -158,-129 -218,-145 -46,-12 -49,-12 -66,10 -11,13 -22,44 -26,69 -9,63 2,203 19,245 39,92 255,214 295,166 z m 462,-216 105,-57 3,-42 c 4,-55 -20,-103 -47,-96 -36,9 -44,28 -30,67 10,26 10,38 1,49 -18,22 -111,69 -122,62 -6,-4 -22,-29 -36,-56 l -25,-51 45,-41 c 53,-50 86,-116 85,-172 0,-22 -12,-80 -27,-130 l -28,-90 -35,1 c -34,1 -241,88 -287,120 l -22,15 31,62 c 55,109 211,379 230,398 11,11 27,19 37,19 9,-1 64,-27 122,-58 z m 3923,-92 c 28,-13 47,-29 47,-39 0,-21 -37,-81 -49,-81 -6,0 -29,18 -53,40 -54,50 -75,51 -84,6 -8,-47 13,-165 36,-204 11,-17 38,-44 61,-59 38,-25 51,-28 128,-28 h 85 l 7,-32 c 6,-32 -3,-108 -15,-120 -9,-9 -132,24 -191,51 -120,55 -177,140 -183,276 -5,107 9,160 50,195 38,32 85,31 161,-5 z M 3200,1317 c 21,-45 44,-110 51,-143 12,-59 12,-64 -15,-118 -31,-63 -124,-169 -168,-192 -55,-29 -82,-3 -122,118 -34,103 -42,175 -22,222 23,55 103,152 154,186 59,39 74,30 122,-73 z m 2937,-164 c 64,-284 85,-395 76,-404 -5,-5 -29,-12 -54,-15 l -45,-6 -22,98 c -11,55 -26,127 -33,162 -6,34 -14,62 -18,62 -3,0 -24,-25 -47,-55 l -41,-54 23,-108 c 13,-59 24,-113 24,-120 0,-12 -58,-33 -91,-33 -12,0 -23,32 -48,143 -63,285 -88,418 -80,422 4,3 28,8 52,11 l 46,7 10,-39 c 5,-22 17,-78 27,-126 9,-49 19,-88 23,-88 3,0 25,27 48,59 l 43,58 -15,78 c -11,56 -12,81 -4,91 12,15 69,23 83,12 5,-4 24,-74 43,-155 z m -2444,112 c 127,-19 135,-22 142,-45 5,-16 -45,-390 -62,-457 -4,-18 2,-25 31,-37 33,-14 35,-17 29,-48 -11,-58 -20,-68 -56,-62 -52,9 -55,11 -50,37 3,14 1,27 -5,31 -9,5 -248,36 -284,36 -10,0 -20,-10 -24,-25 -5,-22 -12,-25 -50,-25 -53,0 -62,14 -45,70 11,36 14,39 54,42 l 42,3 8,55 c 21,148 125,240 271,240 38,0 46,15 46,87 0,42 0,42 -43,48 -75,11 -100,4 -119,-35 -10,-19 -25,-35 -33,-34 -52,3 -55,4 -55,29 0,32 24,81 47,94 24,14 36,13 156,-4 z m 1906,-69 c 22,-26 88,-533 72,-549 -5,-5 -29,-12 -54,-14 -54,-6 -51,-15 -68,190 -14,163 -16,167 -76,121 -56,-43 -67,-75 -73,-214 l -5,-125 -32,-3 c -51,-5 -73,12 -73,58 0,148 98,315 206,350 31,10 34,15 34,48 0,20 -3,48 -7,60 -6,23 -9,24 -62,17 -76,-10 -89,-18 -93,-63 -3,-36 -4,-37 -43,-37 h -40 l -3,46 c -2,37 2,52 20,73 20,22 37,28 128,40 140,18 156,18 169,2 z m -1214,-31 25,-24 V 882 c 0,-284 3,-272 -60,-272 -56,0 -60,6 -60,87 v 76 l -51,-5 c -66,-7 -100,-33 -118,-92 l -15,-47 -45,3 -46,3 3,45 c 8,105 60,219 129,279 37,33 63,45 141,66 20,6 23,12 20,48 l -3,42 -61,3 c -69,3 -94,-11 -94,-54 0,-28 -8,-29 -55,-10 -39,17 -39,16 -25,68 17,60 38,68 173,68 112,0 119,-1 142,-25 z m 715,5 c 13,-8 16,-52 18,-271 2,-145 1,-273 -3,-286 -5,-22 -10,-24 -58,-21 l -52,3 v 163 c 0,89 -4,162 -8,162 -5,0 -30,-19 -57,-41 l -49,-42 -3,-121 -3,-121 -52,-3 -53,-3 v 290 291 h 55 55 v -130 c 0,-148 -2,-146 78,-71 l 42,40 v 80 c 0,54 4,81 13,84 21,9 61,7 77,-3 z" />
    <path
       id="path3889"
       d="m 4060,5290 c -19,-10 -43,-27 -53,-38 -23,-25 -46,-87 -47,-126 0,-23 3,-27 18,-21 9,4 44,17 77,29 l 60,21 -3,70 c -2,39 -7,73 -10,77 -4,3 -23,-2 -42,-12 z" />
    <path
       id="path3891"
       d="m 5416,5363 c -51,-53 -69,-95 -61,-146 9,-55 42,-131 65,-152 18,-16 21,-15 50,16 17,19 42,57 56,86 l 26,51 -18,62 c -16,57 -55,120 -74,120 -4,0 -24,-17 -44,-37 z" />
    <path
       id="path3893"
       d="m 3550,5153 c 0,-37 32,-198 40,-207 14,-14 101,6 113,25 18,28 -2,68 -67,134 -65,67 -86,78 -86,48 z" />
    <path
       id="path3895"
       d="m 6355,5083 c -44,-23 -75,-53 -97,-96 -11,-22 -18,-40 -16,-41 2,0 40,0 85,2 l 82,4 11,36 c 6,20 13,54 16,75 6,36 6,37 -22,37 -16,-1 -42,-8 -59,-17 z" />
    <path
       id="path3897"
       d="m 2952,5035 c -41,-34 -62,-84 -62,-144 0,-28 3,-51 6,-51 3,0 18,9 33,19 15,11 46,27 69,36 23,10 42,19 42,22 0,2 -7,35 -16,74 -17,77 -27,82 -72,44 z" />
    <path
       id="path3899"
       d="m 2437,5062 c -15,-15 -27,-32 -27,-36 0,-23 105,-226 117,-226 19,0 51,58 59,105 9,61 -10,118 -51,154 -44,38 -64,39 -98,3 z" />
    <path
       id="path3901"
       d="m 7070,4758 c -56,-144 -61,-164 -42,-181 28,-24 79,-47 106,-47 21,0 27,8 41,51 26,78 17,168 -21,215 -17,21 -35,39 -41,41 -6,2 -26,-33 -43,-79 z" />
    <path
       id="path3903"
       d="m 1543,4428 c -11,-13 -26,-34 -33,-47 -16,-32 -17,-110 -1,-148 l 12,-30 60,58 60,57 -33,66 c -18,36 -35,66 -38,66 -4,0 -16,-10 -27,-22 z" />
    <path
       id="path3905"
       d="m 4329,3887 c -96,-64 -88,-217 14,-270 33,-17 44,-18 76,-9 20,7 50,25 66,42 25,26 30,40 33,95 5,76 -18,123 -72,149 -46,22 -77,20 -117,-7 z" />
    <path
       id="path3907"
       d="m 4843,3894 c -114,-56 -96,-248 27,-285 32,-10 44,-9 76,7 55,27 77,63 81,131 5,68 -16,111 -69,143 -40,24 -72,25 -115,4 z" />
    <path
       id="path3909"
       d="m 4615,3553 c -14,-27 -35,-60 -46,-74 -14,-18 -19,-34 -14,-48 6,-19 14,-21 90,-21 66,0 84,3 89,16 10,25 8,32 -24,68 -17,18 -37,50 -45,70 -8,20 -17,36 -20,36 -3,0 -16,-21 -30,-47 z" />
    <path
       id="path3911"
       d="m 7559,1941 c -16,-16 -29,-36 -29,-44 0,-22 141,-217 152,-211 6,4 16,21 24,40 34,81 2,189 -67,224 -21,11 -41,20 -44,20 -4,0 -20,-13 -36,-29 z" />
    <path
       id="path3913"
       d="m 2120,1686 c -81,-60 -92,-77 -98,-155 -6,-95 4,-161 26,-161 25,0 75,33 122,80 40,40 40,40 40,118 0,107 -9,152 -29,152 -9,0 -36,-16 -61,-34 z" />
    <path
       id="path3915"
       d="m 2481,1295 c -36,-66 -61,-122 -57,-131 8,-20 135,-79 146,-68 15,17 40,122 40,171 0,48 -34,134 -55,140 -6,2 -39,-49 -74,-112 z" />
    <path
       id="path3917"
       d="m 3056,1283 c -20,-21 -46,-57 -57,-81 -20,-41 -20,-44 -4,-115 18,-79 43,-138 62,-145 17,-5 65,49 98,110 24,44 27,57 21,105 -9,78 -49,163 -76,163 -4,0 -24,-17 -44,-37 z" />
    <path
       id="path3919"
       d="m 3660,1028 c -79,-22 -132,-93 -146,-196 -7,-58 -11,-55 98,-67 l 57,-6 11,42 c 17,61 40,187 40,215 0,26 -7,27 -60,12 z" />
    <path
       id="path3921"
       d="m 4249,950 c -48,-25 -86,-72 -99,-121 -6,-23 -9,-43 -7,-45 2,-3 30,2 63,11 32,8 66,15 75,15 21,0 29,28 29,103 0,64 -5,67 -61,37 z" />
  </g>
</svg>
